<?xml version="1.0" standalone="no"?>
<!DOCTYPE svg PUBLIC "-//W3C//DTD SVG 20010904//EN"
 "http://www.w3.org/TR/2001/REC-SVG-20010904/DTD/svg10.dtd">
<svg version="1.0" xmlns="http://www.w3.org/2000/svg"
 width="800.000000pt" height="800.000000pt" viewBox="0 0 800.000000 800.000000"
 preserveAspectRatio="xMidYMid meet">
<metadata>
Created by potrace 1.11, written by Peter Selinger 2001-2013
</metadata>
<g transform="translate(0.000000,800.000000) scale(0.100000,-0.100000)"
fill="#000000" stroke="none">
<path d="M3938 6289 c-48 -4 -102 -9 -120 -12 -168 -25 -312 -59 -438 -102
-97 -34 -261 -105 -280 -121 -8 -7 -19 -13 -25 -14 -32 -6 -254 -151 -349
-228 -359 -293 -610 -641 -745 -1034 -38 -113 -84 -297 -96 -388 -3 -25 -8
-61 -10 -80 -15 -106 -21 -403 -10 -505 2 -22 7 -65 10 -95 10 -90 45 -258 77
-365 193 -650 723 -1219 1363 -1463 74 -28 237 -76 295 -86 14 -2 52 -9 85
-14 33 -6 76 -14 95 -18 73 -13 483 -12 585 2 160 22 178 25 212 35 17 6 43
12 57 15 78 14 369 124 412 156 6 4 33 20 59 34 42 22 137 82 170 106 345 258
592 576 720 929 15 41 29 85 31 98 3 14 14 56 24 95 10 39 21 89 25 111 3 22
10 65 15 95 5 30 12 80 15 110 4 30 8 69 10 85 3 17 7 130 11 253 l6 222 -28
1 c-39 0 -1597 0 -1701 0 l-83 -1 0 -310 0 -310 546 0 545 0 -6 -47 c-15 -109
-60 -254 -107 -347 -27 -54 -119 -193 -153 -231 -65 -74 -135 -142 -197 -191
-75 -60 -217 -154 -234 -154 -5 0 -15 -5 -21 -11 -32 -32 -268 -109 -378 -124
-22 -3 -55 -8 -74 -11 -47 -8 -235 -7 -296 1 -101 14 -182 30 -220 45 -14 5
-25 8 -25 5 0 -2 -35 9 -77 25 -357 130 -685 394 -880 705 -73 117 -166 337
-187 445 -2 14 -9 48 -15 77 -26 130 -34 376 -19 539 16 164 74 379 144 529
148 319 456 627 779 779 122 57 335 119 455 131 36 4 68 9 72 11 9 6 304 5
338 0 14 -2 48 -7 75 -11 127 -17 277 -63 396 -121 38 -19 72 -34 74 -34 13 0
188 -120 255 -174 94 -77 230 -214 295 -300 28 -35 53 -65 56 -65 6 -1 30 22
298 278 94 90 171 167 171 172 0 16 -318 326 -411 401 -296 236 -613 387 -934
442 -14 3 -33 7 -43 10 -9 2 -42 7 -73 11 -31 3 -67 8 -80 11 -41 9 -369 11
-461 3z"/>
</g>
</svg>
